<svg xmlns="http://www.w3.org/2000/svg" xmlns:xlink="http://www.w3.org/1999/xlink" width="18" height="18" viewBox="0 0 18 18">
    <defs>
        <path id="a" d="M9.817 9.263a.83.83 0 0 1-.818.842.83.83 0 0 1-.818-.842V5.895A.83.83 0 0 1 9 5.053a.83.83 0 0 1 .818.842v3.368zM9 12.631a.83.83 0 0 1-.818-.842.83.83 0 0 1 .818-.842.83.83 0 0 1 .818.842.83.83 0 0 1-.818.842zm8.64-.586L11.364 1.334C10.873.499 9.989 0 8.999 0c-.99 0-1.873.499-2.363 1.334L.359 12.044A2.569 2.569 0 0 0 .322 14.6a2.727 2.727 0 0 0 2.4 1.4h12.554a2.727 2.727 0 0 0 2.4-1.4 2.569 2.569 0 0 0-.036-2.554z"/>
    </defs>
    <g fill="none" fill-rule="evenodd">
        <path d="M0 0h18v18H0z"/>
        <use fill="#F5500A" fill-rule="nonzero" opacity=".8" xlink:href="#a"/>
    </g>
</svg>
