<svg xmlns="http://www.w3.org/2000/svg" width="100" height="28" viewBox="0 0 100 28">
    <g fill="none" fill-rule="evenodd">
        <path d="M0 0h100v28H0z"/>
        <g fill="#FFF" fill-rule="nonzero" opacity=".6">
            <path d="M66 12.2c-1.6 0-2.2 1.2-2.2 1.2v-1.1h-1.2v7.1h1.2v-4.6c0-.6.6-1.5 1.9-1.5 1.2 0 1.9.7 1.9 2.1v4.1h1.2v-4.3c0-1.9-1.1-3-2.8-3zM59.5 10h-1.2v1.4c0 .5-.4.9-.9.9H56l-2.3 5.4-2.3-5.4h-1.2l2.9 6.9-.8 1.8h-1.6v1.1H52c.7 0 1.3-.4 1.6-1.1l3.2-7.7h1.5v4.2c0 1.1.6 1.8 1.7 1.8h1.7v-1.1h-2.1v-5h2.1v-1.1h-2.1V10h-.1z"/>
            <path d="M49.4 14.7c0-1.6-1.1-2.6-2.9-2.6-1.7 0-2.9 1-3.1 2.7h1.2c.3-1.2 1.1-1.7 1.9-1.7 1.1 0 1.8.6 1.8 1.7v.5h-1.7c-2.3 0-3.4.7-3.4 2s1 2.1 2.7 2.1c1.3 0 2.1-.5 2.4-1.3.1.7.5 1.1 1.4 1.1h.8v-1.1h-1.1v-3.4zm-1.2 2.6c0 .7-.9 1.3-2.1 1.3-1 0-1.6-.4-1.6-1.1v-.3c0-.7.7-1.1 2.1-1.1h1.7v1.2h-.1zM41.2 9.4H40v8.1c0 1.1.6 1.8 1.7 1.8h.6v-1.1h-1.1V9.4zM31.7 9.4h1.2v9.9h-1.2zM39.2 9.4h-1.5l-3.8 3.7c-.4.4-.4.9-.1 1.3l3.9 4.9h1.5l-4.5-5.6 4.5-4.3z"/>
            <g>
                <path d="M72.8 9.4h1v9.9h-1zM76.1 9.4h3.2c3 0 5 1.8 5 5s-2 5-5 5h-3.2v-10zm3.1 9.1c2.4 0 4.1-1.4 4.1-4.1 0-2.6-1.6-4.1-4.1-4.1H77v8.2h2.2zM86.1 9.4h5.6v.9h-4.6v3.6h3.8v.9h-3.8v3.7H92v.9h-5.9z"/>
            </g>
            <path d="M16.2 5.8L8 14c0 2.3.9 4.4 2.3 6l5.9-14.2zM23.1 7.3L17.6 5l-5.5 13.2zM17.1 14.6l-5.9 6 5.9 2.4 5.9-2.4zM23.9 20c1.5-1.6 2.4-3.8 2.4-6.1s-.9-4.4-2.3-6L17.9 14l6 6z"/>
        </g>
    </g>
</svg>
